<svg width="22" height="22" viewBox="0 0 22 22" fill="none" xmlns="http://www.w3.org/2000/svg">
<path fill-rule="evenodd" clip-rule="evenodd" d="M15.8127 9.62499C15.8127 10.4375 15.6526 11.2421 15.3416 11.9928C15.0307 12.7435 14.5749 13.4256 14.0004 14.0002C13.4258 14.5747 12.7437 15.0305 11.993 15.3415C11.2423 15.6524 10.4377 15.8125 9.62517 15.8125C8.81261 15.8125 8.00802 15.6524 7.25731 15.3415C6.50662 15.0305 5.82451 14.5747 5.24995 14.0002C4.67538 13.4256 4.21962 12.7435 3.90866 11.9928C3.59771 11.2421 3.43767 10.4375 3.43767 9.62499C3.43767 7.98395 4.08956 6.41014 5.24995 5.24976C6.41032 4.08938 7.98414 3.43749 9.62517 3.43749C11.2662 3.43749 12.84 4.08938 14.0004 5.24976C15.1608 6.41014 15.8127 7.98395 15.8127 9.62499ZM14.6852 16.1425C13.0274 17.4295 10.9416 18.0363 8.85215 17.8394C6.76274 17.6426 4.82689 16.6569 3.4387 15.0829C2.0505 13.509 1.31433 11.4651 1.38002 9.36752C1.44574 7.26989 2.30838 5.27614 3.79235 3.79217C5.27633 2.3082 7.27007 1.44555 9.3677 1.37984C11.4653 1.31414 13.5091 2.05032 15.0831 3.43852C16.6571 4.82671 17.6428 6.76255 17.8396 8.85196C18.0365 10.9414 17.4297 13.0272 16.1427 14.685L20.3227 18.865C20.424 18.9594 20.5053 19.0733 20.5617 19.1998C20.618 19.3263 20.6483 19.4628 20.6508 19.6013C20.6532 19.7398 20.6277 19.8773 20.5758 20.0057C20.524 20.1341 20.4467 20.2507 20.3488 20.3486C20.2509 20.4466 20.1343 20.5238 20.0059 20.5756C19.8775 20.6275 19.74 20.653 19.6015 20.6506C19.463 20.6481 19.3264 20.6178 19.2 20.5615C19.0735 20.5051 18.9596 20.4238 18.8652 20.3225L14.6852 16.1425Z" fill="#E0E0E0"/>
</svg>
